0.11m3min_grf.mot
version=1
nRows=22
nColumns 19
inDegrees=yes
endheader
time	1_ground_force_vx	1_ground_force_vy	1_ground_force_vz	1_ground_force_px	1_ground_force_py	1_ground_force_pz	1_ground_torque_x	1_ground_torque_y	1_ground_torque_z	2_ground_force_vx	2_ground_force_vy	2_ground_force_vz	2_ground_force_px	2_ground_force_py	2_ground_force_pz	2_ground_torque_x	2_ground_torque_y	2_ground_torque_z
            3.751500	           -8.694085	          743.345703	          -64.934921	           -0.152290	            0.006280	           -0.415111	           -0.019105	            1.633475	           -0.142692	           -3.116218	          908.047956	           51.482646	           -0.173037	            0.005786	           -0.677304	            0.006784	           -1.976871	           -0.112081
            3.752000	           -7.774608	          736.493364	          -64.416298	           -0.152245	            0.006279	           -0.414981	           -0.015239	            1.443627	           -0.126265	           -3.131577	          899.212015	           50.512565	           -0.173006	            0.005786	           -0.677167	            0.006620	           -1.900775	           -0.106775
            3.752500	           -7.312810	          728.017851	          -63.720071	           -0.152210	            0.006280	           -0.415217	           -0.009850	            0.980629	           -0.085830	           -2.535853	          889.825577	           49.634110	           -0.172760	            0.005787	           -0.677142	            0.005589	           -1.961200	           -0.109395
            3.753000	           -6.163499	          720.263533	          -63.022458	           -0.152101	            0.006279	           -0.415015	           -0.006780	            0.792271	           -0.069323	           -2.363628	          880.988806	           49.086302	           -0.172638	            0.005787	           -0.677064	            0.005084	           -1.894946	           -0.105581
            3.753500	           -5.610408	          712.689668	          -62.414297	           -0.152031	            0.006279	           -0.415013	           -0.005630	            0.715206	           -0.062635	           -1.915141	          873.443602	           48.120621	           -0.172685	            0.005787	           -0.677152	            0.004157	           -1.896069	           -0.104460
            3.754000	           -5.147975	          703.852579	          -61.490340	           -0.151802	            0.006280	           -0.415122	           -0.007175	            0.981030	           -0.085705	           -1.416439	          864.977468	           47.245492	           -0.172718	            0.005786	           -0.677054	            0.002954	           -1.803968	           -0.098534
            3.754500	           -4.685951	          696.638108	          -60.605278	           -0.151771	            0.006280	           -0.415052	           -0.009078	            1.349548	           -0.117406	           -0.541527	          856.143736	           46.556601	           -0.172525	            0.005787	           -0.677062	            0.001112	           -1.758807	           -0.095643
            3.755000	           -3.858110	          688.884712	          -60.136145	           -0.151589	            0.006280	           -0.415073	           -0.007686	            1.372382	           -0.119802	           -0.136485	          847.676929	           45.775367	           -0.172557	            0.005787	           -0.677071	            0.000270	           -1.674644	           -0.090432
            3.755500	           -2.937134	          680.047515	          -59.167465	           -0.151437	            0.006280	           -0.415206	           -0.005038	            1.166383	           -0.101481	            0.127988	          839.209782	           44.947265	           -0.172383	            0.005788	           -0.677058	           -0.000253	           -1.657182	           -0.088757
            3.756000	           -2.155624	          672.475192	          -58.880876	           -0.151329	            0.006281	           -0.415280	           -0.002452	            0.765020	           -0.066984	            0.439310	          830.742804	           44.119143	           -0.172500	            0.005788	           -0.677157	           -0.000877	           -1.658899	           -0.088101
            3.756500	           -1.556495	          665.081238	          -58.180352	           -0.151318	            0.006280	           -0.415175	           -0.001180	            0.504092	           -0.044097	            0.842359	          822.828480	           43.339880	           -0.172455	            0.005788	           -0.677227	           -0.001647	           -1.609147	           -0.084757
            3.757000	           -0.773973	          655.705018	          -57.626350	           -0.150894	            0.006282	           -0.415562	           -0.000617	            0.522396	           -0.045911	            1.159745	          812.703506	           42.693557	           -0.172293	            0.005787	           -0.676919	           -0.002242	           -1.570964	           -0.082527
            3.757500	           -0.220929	          647.770879	          -57.065602	           -0.150901	            0.006282	           -0.415630	           -0.000295	            0.863698	           -0.076088	            1.609623	          804.789518	           41.867346	           -0.172223	            0.005788	           -0.677057	           -0.003023	           -1.511408	           -0.078628
            3.758000	            0.378314	          640.376729	          -56.319219	           -0.150780	            0.006282	           -0.415464	            0.000666	            1.127439	           -0.099155	            2.012090	          797.058605	           41.276453	           -0.172166	            0.005789	           -0.677140	           -0.003613	           -1.431193	           -0.074116
            3.758500	            1.023742	          632.982119	          -55.435384	           -0.150776	            0.006280	           -0.415165	            0.001887	            1.166832	           -0.102189	            2.605340	          788.407223	           40.822979	           -0.172227	            0.005789	           -0.677210	           -0.004548	           -1.376390	           -0.071268
            3.759000	            1.531740	          625.046595	          -54.553528	           -0.150792	            0.006280	           -0.415209	            0.002090	            0.852728	           -0.074425	            3.059104	          779.389106	           39.758186	           -0.172160	            0.005788	           -0.677063	           -0.005564	           -1.417636	           -0.072316
            3.759500	            2.222232	          616.932383	          -54.039747	           -0.150635	            0.006281	           -0.415298	            0.001535	            0.426251	           -0.037337	            2.950291	          770.550818	           39.351282	           -0.172043	            0.005788	           -0.676898	           -0.004838	           -1.263611	           -0.064531
            3.760000	            3.096728	          609.718189	          -53.201569	           -0.150532	            0.006281	           -0.415375	            0.001756	            0.345726	           -0.030167	            3.355916	          761.900601	           38.381679	           -0.172072	            0.005788	           -0.676992	           -0.005951	           -1.350987	           -0.068058
            3.760500	            3.602709	          601.605907	          -53.145892	           -0.150274	            0.006281	           -0.415312	            0.002457	            0.410222	           -0.036239	            3.714212	          753.432788	           37.835105	           -0.171977	            0.005789	           -0.677175	           -0.006205	           -1.258789	           -0.063213
            3.761000	            4.430793	          594.392687	          -52.536876	           -0.150412	            0.006281	           -0.415338	            0.005877	            0.788427	           -0.069687	            4.025493	          744.966145	           36.913127	           -0.171854	            0.005790	           -0.677135	           -0.006389	           -1.182450	           -0.058590
            3.761500	            4.847221	          585.195512	          -51.706055	           -0.149972	            0.006283	           -0.415765	            0.008493	            1.025362	           -0.090598	            4.332389	          737.786372	           36.605814	           -0.171932	            0.005790	           -0.677318	           -0.006810	           -1.159760	           -0.057542
            3.762000	            5.721016	          578.703364	          -51.094060	           -0.149952	            0.006281	           -0.415374	            0.009731	            0.984303	           -0.086905	            4.837901	          727.477370	           36.099538	           -0.171731	            0.005789	           -0.676883	           -0.007108	           -1.068778	           -0.053036
